<svg width="282" height="282" viewBox="0 0 282 282" fill="none" xmlns="http://www.w3.org/2000/svg">
<path d="M151 69.5002C151.5 75.5002 146.1 76.2002 146.5 83.0002" stroke="#AC08FA" stroke-width="3" stroke-linecap="round"/>
<path d="M143.5 65.0002C144 71.0002 137.8 78.1002 139 80.5002" stroke="#AC08FA" stroke-width="3" stroke-linecap="round"/>
<path d="M6.71751 145.31C4.17911 142.772 4.17911 138.656 6.71751 136.118L136.118 6.71749C138.656 4.17907 142.772 4.17908 145.31 6.71749L274.711 136.118C277.249 138.656 277.249 142.772 274.711 145.31L145.31 274.711C142.772 277.249 138.656 277.249 136.118 274.711L6.71751 145.31Z" stroke="#AC08FA" stroke-width="3"/>
<path d="M157.5 81.0002C160 84.0002 166.5 88.8002 172.5 84.0002C171.667 86.5002 170.5 93.9002 172.5 103.5C174.5 113.1 172.667 120.167 171.5 122.5C168 133 165.4 155.1 183 159.5" stroke="#AC08FA" stroke-width="3" stroke-linecap="round"/>
<path d="M171.5 150.5C163.167 137.833 139.3 117.8 110.5 139C105 117.5 84.5 116.5 67 124M82 195C86.8333 191.167 96.3762 181.497 99 174.5C102 166.5 101 166 107.5 172.5C112.5 177.5 129.8 181.1 149 167.5" stroke="#AC08FA" stroke-width="3" stroke-linecap="round"/>
<path d="M158 76.5002C157.835 80.9644 155.045 90.3493 146.702 83.6642C146.578 83.5651 146.409 83.5242 146.254 83.5569C143.174 84.2075 140.799 82.4615 139.5 81.0002C134.5 82.1668 126.9 80.3002 136.5 63.5002" stroke="#AC08FA" stroke-width="3" stroke-linecap="round"/>
<path d="M132 78.0002C128.667 77.5002 122.8 74.3002 126 65.5002C129 63.0002 137.5 57.5002 138 55.0002C139 52.5002 149.5 52.9002 159.5 60.5002C160.5 61.1669 163.6 62.8002 168 64.0002C173.5 65.5002 176.5 68.5002 180 78.0002C183.5 87.5002 184 91.5002 198.5 113.5C213 135.5 217.5 139 215.5 165C215.5 175.5 209 179.834 204.5 182.5C201.5 184.167 194 187.8 188 189C183.167 189.834 173 193 167 196.5C159.916 200.632 129 214 105 193C100 188.625 100.531 191 99.5 196.5C98 204.5 97 208 92.5 214.5" stroke="#AC08FA" stroke-width="3" stroke-linecap="round"/>
</svg>
