<svg width="282" height="282" viewBox="0 0 282 282" fill="none" xmlns="http://www.w3.org/2000/svg">
<path d="M5.65685 146.371C2.53266 143.247 2.53266 138.182 5.65685 135.057L135.057 5.65684C138.182 2.53265 143.247 2.53265 146.371 5.65684L275.772 135.057C278.896 138.182 278.896 143.247 275.772 146.371L146.371 275.772C143.247 278.896 138.182 278.896 135.057 275.772L5.65685 146.371Z" fill="#6A87ED"/>
<path d="M80.5352 136.044H70.8057L70.7529 131.957H79.5859C81.0449 131.957 82.3193 131.711 83.4092 131.219C84.499 130.727 85.3428 130.023 85.9404 129.109C86.5557 128.178 86.8633 127.07 86.8633 125.787C86.8633 124.381 86.5908 123.238 86.0459 122.359C85.5186 121.463 84.7012 120.812 83.5938 120.408C82.5039 119.986 81.1152 119.775 79.4277 119.775H71.9395V154H66.8506V115.609H79.4277C81.3965 115.609 83.1543 115.812 84.7012 116.216C86.248 116.603 87.5576 117.218 88.6299 118.062C89.7197 118.888 90.5459 119.942 91.1084 121.226C91.6709 122.509 91.9521 124.047 91.9521 125.84C91.9521 127.422 91.5479 128.854 90.7393 130.138C89.9307 131.403 88.8057 132.44 87.3643 133.249C85.9404 134.058 84.2705 134.576 82.3545 134.805L80.5352 136.044ZM80.2979 154H68.8018L71.6758 149.86H80.2979C81.915 149.86 83.2861 149.579 84.4111 149.017C85.5537 148.454 86.4238 147.663 87.0215 146.644C87.6191 145.606 87.918 144.385 87.918 142.979C87.918 141.555 87.6631 140.324 87.1533 139.287C86.6436 138.25 85.8438 137.45 84.7539 136.888C83.6641 136.325 82.2578 136.044 80.5352 136.044H73.2842L73.3369 131.957H83.251L84.332 133.434C86.1777 133.592 87.7422 134.119 89.0254 135.016C90.3086 135.895 91.2842 137.02 91.9521 138.391C92.6377 139.762 92.9805 141.273 92.9805 142.926C92.9805 145.316 92.4531 147.338 91.3984 148.99C90.3613 150.625 88.8936 151.873 86.9951 152.734C85.0967 153.578 82.8643 154 80.2979 154ZM116.579 149.122V134.436C116.579 133.311 116.351 132.335 115.894 131.509C115.454 130.665 114.786 130.015 113.89 129.558C112.993 129.101 111.886 128.872 110.567 128.872C109.337 128.872 108.256 129.083 107.324 129.505C106.41 129.927 105.689 130.48 105.162 131.166C104.652 131.852 104.397 132.59 104.397 133.381H99.5195C99.5195 132.361 99.7832 131.351 100.311 130.349C100.838 129.347 101.594 128.441 102.578 127.633C103.58 126.807 104.775 126.156 106.164 125.682C107.57 125.189 109.135 124.943 110.857 124.943C112.932 124.943 114.76 125.295 116.342 125.998C117.941 126.701 119.189 127.765 120.086 129.188C121 130.595 121.457 132.361 121.457 134.488V147.777C121.457 148.727 121.536 149.737 121.694 150.81C121.87 151.882 122.125 152.805 122.459 153.578V154H117.37C117.124 153.438 116.931 152.69 116.79 151.759C116.649 150.81 116.579 149.931 116.579 149.122ZM117.423 136.703L117.476 140.131H112.545C111.156 140.131 109.917 140.245 108.827 140.474C107.737 140.685 106.823 141.01 106.085 141.449C105.347 141.889 104.784 142.442 104.397 143.11C104.011 143.761 103.817 144.525 103.817 145.404C103.817 146.301 104.02 147.118 104.424 147.856C104.828 148.595 105.435 149.184 106.243 149.623C107.069 150.045 108.08 150.256 109.275 150.256C110.77 150.256 112.088 149.939 113.23 149.307C114.373 148.674 115.278 147.9 115.946 146.986C116.632 146.072 117.001 145.185 117.054 144.323L119.137 146.67C119.014 147.408 118.68 148.226 118.135 149.122C117.59 150.019 116.86 150.88 115.946 151.706C115.05 152.515 113.978 153.191 112.729 153.736C111.499 154.264 110.11 154.527 108.563 154.527C106.63 154.527 104.934 154.149 103.475 153.394C102.033 152.638 100.908 151.627 100.1 150.361C99.3086 149.078 98.9131 147.646 98.9131 146.063C98.9131 144.534 99.2119 143.189 99.8096 142.029C100.407 140.852 101.269 139.876 102.394 139.103C103.519 138.312 104.872 137.714 106.454 137.31C108.036 136.905 109.803 136.703 111.754 136.703H117.423ZM134.034 113.5V154H129.13V113.5H134.034ZM151.463 125.471L139.018 138.786L132.057 146.011L131.661 140.816L136.645 134.857L145.504 125.471H151.463ZM147.007 154L136.829 140.395L139.36 136.044L152.755 154H147.007ZM173.954 147.408V125.471H178.858V154H174.191L173.954 147.408ZM174.877 141.396L176.907 141.344C176.907 143.242 176.705 145 176.301 146.617C175.914 148.217 175.281 149.605 174.402 150.783C173.523 151.961 172.372 152.884 170.948 153.552C169.524 154.202 167.793 154.527 165.754 154.527C164.365 154.527 163.091 154.325 161.931 153.921C160.788 153.517 159.804 152.893 158.978 152.049C158.151 151.205 157.51 150.106 157.053 148.753C156.613 147.399 156.394 145.773 156.394 143.875V125.471H161.271V143.928C161.271 145.211 161.412 146.274 161.693 147.118C161.992 147.944 162.388 148.604 162.88 149.096C163.39 149.57 163.952 149.904 164.567 150.098C165.2 150.291 165.851 150.388 166.519 150.388C168.593 150.388 170.236 149.992 171.449 149.201C172.662 148.393 173.532 147.312 174.06 145.958C174.604 144.587 174.877 143.066 174.877 141.396ZM193.571 154H188.693V122.465C188.693 120.408 189.062 118.677 189.801 117.271C190.557 115.847 191.638 114.774 193.044 114.054C194.45 113.315 196.12 112.946 198.054 112.946C198.616 112.946 199.179 112.981 199.741 113.052C200.321 113.122 200.884 113.228 201.429 113.368L201.165 117.35C200.796 117.262 200.374 117.2 199.899 117.165C199.442 117.13 198.985 117.112 198.528 117.112C197.491 117.112 196.595 117.323 195.839 117.745C195.101 118.149 194.538 118.747 194.151 119.538C193.765 120.329 193.571 121.305 193.571 122.465V154ZM199.636 125.471V129.215H184.185V125.471H199.636ZM222.522 147.408V125.471H227.427V154H222.76L222.522 147.408ZM223.445 141.396L225.476 141.344C225.476 143.242 225.273 145 224.869 146.617C224.482 148.217 223.85 149.605 222.971 150.783C222.092 151.961 220.94 152.884 219.517 153.552C218.093 154.202 216.361 154.527 214.322 154.527C212.934 154.527 211.659 154.325 210.499 153.921C209.356 153.517 208.372 152.893 207.546 152.049C206.72 151.205 206.078 150.106 205.621 148.753C205.182 147.399 204.962 145.773 204.962 143.875V125.471H209.84V143.928C209.84 145.211 209.98 146.274 210.262 147.118C210.561 147.944 210.956 148.604 211.448 149.096C211.958 149.57 212.521 149.904 213.136 150.098C213.769 150.291 214.419 150.388 215.087 150.388C217.161 150.388 218.805 149.992 220.018 149.201C221.23 148.393 222.101 147.312 222.628 145.958C223.173 144.587 223.445 143.066 223.445 141.396Z" fill="white"/>
</svg>
