<svg width="282" height="282" viewBox="0 0 282 282" fill="none" xmlns="http://www.w3.org/2000/svg">
<path d="M117.5 175C115.167 176.333 109.462 196.5 107.5 201C106.333 203.667 103.7 209.7 102.5 212.5" stroke="#E33E3E" stroke-width="3" stroke-linecap="round"/>
<path d="M159.5 93C160.333 96.3333 160.7 104 155.5 108" stroke="#E33E3E" stroke-width="3" stroke-linecap="round"/>
<path d="M152 104.5C153.667 105.833 156 109 155 113C154 118.5 153.5 119 151.5 121C151 121.5 156.7 126.5 155.5 132.5C155 135 154.2 140.5 155 142.5" stroke="#E33E3E" stroke-width="3" stroke-linecap="round"/>
<path d="M154 123.5C154.833 120 157.8 113.1 163 113.5C169.5 114 172.5 115.5 172 128C171.5 140.5 183.5 139.5 173 166C168.5 177.357 165 177 161.5 180.5C157.833 183.833 150 192.4 148 200C146.8 205.6 143.739 207.5 142 210C139.333 213.833 133.7 225.6 132.5 242" stroke="#E33E3E" stroke-width="3" stroke-linecap="round"/>
<path d="M159.5 103C165.9 105.4 173.5 101 176.5 98.5001C183.5 93.0001 182 85.5001 175.5 87.0001C173 88.0001 164 88.5001 161 86.0001C154.2 76.8001 147.833 80.5001 145.5 83.5001C142 88.0001 140.5 102 135 106C131.833 108.5 126.2 117 129 131C130 136 130.5 137.5 128.5 146M126.5 86.0001C123.5 84.8334 117.5 84.4001 117.5 92.0001C117.5 99.6001 116.5 108.5 116 112" stroke="#E33E3E" stroke-width="3" stroke-linecap="round"/>
<path d="M115 128C116.333 136.5 118.6 156.6 117 169C117 172.6 117.667 176.5 118 178C118.667 179.333 119.9 182.6 119.5 185" stroke="#E33E3E" stroke-width="3" stroke-linecap="round"/>
<path d="M6.71751 145.31C4.17911 142.772 4.17911 138.656 6.71751 136.118L136.118 6.71749C138.656 4.17907 142.772 4.17908 145.31 6.71749L274.711 136.118C277.249 138.656 277.249 142.772 274.711 145.31L145.31 274.711C142.772 277.249 138.656 277.249 136.118 274.711L6.71751 145.31Z" stroke="#E33E3E" stroke-width="3"/>
<path d="M145 83C141.333 78.8333 134.348 73.6454 128.5 82C125 87 125.5 91.5 123.5 97C122.667 99.5 120.5 105.4 118.5 109C116 113.5 110.5 118 117.5 134C121.1 142.4 121.667 147.5 121.5 149" stroke="#E33E3E" stroke-width="3" stroke-linecap="round"/>
<path d="M181.5 90.5H209.5C210.833 99.1667 205.2 117.1 172 119.5" stroke="#E33E3E" stroke-width="3" stroke-linecap="round"/>
<circle cx="184.5" cy="104.5" r="2" stroke="#E33E3E" stroke-width="3"/>
</svg>
