<svg width="282" height="282" viewBox="0 0 282 282" fill="none" xmlns="http://www.w3.org/2000/svg">
<path d="M117.488 146V152.654C117.488 152.862 117.367 153.046 117.172 153.119C106.365 157.205 83.3064 167.598 74.9884 177.5C64.4884 190 76.4884 202 90.4884 202C104.488 202 163.988 189.5 176.488 184" stroke="#6A87ED" stroke-width="3" stroke-linecap="round"/>
<path d="M173.488 183C174.655 183 177.288 183.4 178.488 185C180.738 188 187.488 188 181.488 182C179.155 179 173.399 174.523 167.488 176C161.536 177.488 157.552 175.368 156.025 173.544C156 173.515 155.973 173.489 155.942 173.466C153.088 171.311 146.875 169.247 144.488 178" stroke="#6A87ED" stroke-width="3" stroke-linecap="round"/>
<path d="M145.988 179C145.322 178.334 143.288 177.6 140.488 180C137.688 182.4 131.322 182.334 128.488 182C125.252 181.353 118.215 180.455 115.245 181.866C115.083 181.943 114.992 182.112 114.97 182.29C114.612 185.244 108.988 188.777 108.988 182C108.988 176.4 115.488 173.5 119.488 173.5C120.988 173.5 126.088 173.8 128.488 171C131.458 167.535 136.389 167.01 138.428 173.308C138.467 173.429 138.55 173.536 138.661 173.597C141.406 175.103 144.182 175.163 145.488 175" stroke="#6A87ED" stroke-width="3" stroke-linecap="round"/>
<path d="M113.988 120C113.988 122.334 114.488 128 116.488 132" stroke="#6A87ED" stroke-width="3" stroke-linecap="round"/>
<path d="M99.4884 115C96.3257 120.327 91.1016 133.567 93.4793 145.953C93.4853 145.984 93.4884 146.017 93.4884 146.049C93.4885 148.498 93.5106 149.974 96.8983 150C96.9565 150 97.0153 149.99 97.0703 149.971C98.929 149.324 102.518 149 104.488 149C106.48 149 122.36 146.024 133.849 136.615C133.939 136.541 134.051 136.501 134.167 136.496C135.722 136.427 138.604 135.463 138.988 132C139.46 127.757 141.709 112.402 139.869 105.213C139.756 104.772 139.188 104.768 139.032 105.195C135.722 114.318 138.194 118.333 131.524 126.457C131.501 126.485 131.476 126.51 131.447 126.532C129.079 128.376 122.544 132 114.988 132C107.388 132 100.488 135 97.9884 136.5" stroke="#6A87ED" stroke-width="3" stroke-linecap="round"/>
<path d="M108.988 132.5C110.322 131.167 113.188 126.7 113.988 119.5" stroke="#6A87ED" stroke-width="3" stroke-linecap="round"/>
<path d="M113.488 115C113.488 118.167 115.788 125.1 124.988 127.5" stroke="#6A87ED" stroke-width="3" stroke-linecap="round"/>
<path d="M139.988 42.0002C132.673 42.499 120.547 49.765 130.416 74.8177C130.453 74.9103 130.471 74.9565 130.48 75.0029C130.488 75.0493 130.488 75.098 130.488 75.1953C130.481 80.3552 130.192 82.5374 129.901 83.2825C129.901 83.2838 129.902 83.2807 129.803 83.3632C129.703 83.4457 129.425 83.4984 128.869 83.6038C125.086 84.3212 117.403 87.1958 112.488 94.0002" stroke="#6A87ED" stroke-width="3" stroke-linecap="round"/>
<path d="M113.488 92.5003C107.655 93.0003 96.7884 98.5003 99.9884 116.5" stroke="#6A87ED" stroke-width="3" stroke-linecap="round"/>
<path d="M158.488 145V152.585C158.488 152.826 158.654 153.031 158.891 153.077C174.89 156.159 198.658 165.584 206.988 175.5C217.488 188 204.488 198.5 190.488 198.5C176.488 198.5 166.488 197 153.988 191" stroke="#6A87ED" stroke-width="3" stroke-linecap="round"/>
<path d="M162.988 121C162.988 123.334 162.488 129 160.488 133" stroke="#6A87ED" stroke-width="3" stroke-linecap="round"/>
<path d="M179.239 115C182.402 120.327 187.626 133.567 185.248 145.953C185.242 145.984 185.239 146.017 185.239 146.049C185.239 148.498 185.217 149.974 181.829 150C181.771 150 181.712 149.99 181.657 149.971C179.798 149.324 176.21 149 174.239 149C172.245 149 155.588 145.521 144.092 136.086C144.024 136.03 143.942 135.993 143.855 135.978C140.915 135.485 138.495 134.948 138.988 131.5M178.488 133C171.988 131 167.488 133 160.488 133C153.607 133 149.706 129.94 147.359 128.095C147.28 128.033 147.223 127.95 147.193 127.854C142.999 114.353 144.475 94.0669 140.988 112.5L140.488 117.5" stroke="#6A87ED" stroke-width="3" stroke-linecap="round"/>
<path d="M166.488 132.5C165.155 131.167 163.788 128.2 162.988 121" stroke="#6A87ED" stroke-width="3" stroke-linecap="round"/>
<path d="M163.988 116C163.988 119.167 162.188 127.1 152.988 129.5" stroke="#6A87ED" stroke-width="3" stroke-linecap="round"/>
<path d="M139.988 42.0002C147.304 42.499 159.429 49.765 149.56 74.8177C149.524 74.9102 149.505 74.9564 149.497 75.0027C149.488 75.0489 149.488 75.0976 149.488 75.1951C149.49 80.3651 149.563 82.7628 149.708 83.6525C149.719 83.7204 149.724 83.7544 149.836 83.8677C149.947 83.981 150.167 84.0211 150.608 84.1013C154.296 84.7721 161.078 87.2019 165.988 94.0002" stroke="#6A87ED" stroke-width="3" stroke-linecap="round"/>
<path d="M165.488 93.0002C171.321 93.5002 182.188 99.0002 178.988 117" stroke="#6A87ED" stroke-width="3" stroke-linecap="round"/>
<path d="M6.71751 145.31C4.17911 142.772 4.17911 138.656 6.71751 136.118L136.118 6.71749C138.656 4.17907 142.772 4.17908 145.31 6.71749L274.711 136.118C277.249 138.656 277.249 142.772 274.711 145.31L145.31 274.711C142.772 277.249 138.656 277.249 136.118 274.711L6.71751 145.31Z" stroke="#6A87ED" stroke-width="3"/>
</svg>
